<svg xmlns="http://www.w3.org/2000/svg" width="13" height="13" viewBox="0 0 32 32"><path fill="currentColor" d="M16 0C7.18 0 0 7.18 0 16s7.18 16 16 16 16-7.18 16-16S24.82 0 16 0zm-1.43 27.95-.28 1.43C7.66 28.53 2.51 22.85 2.51 16c0-3.22 1.13-6.18 3.02-8.5.4.39.89.84.95.98.1.24.2.51.44.91-.01.4.08.9.17 1.42.09.5.19 1.02.17 1.42v.06l.03.05c.13.26.17.54.21.83.05.34.1.69.29 1.06.3.49.73.85 1.14 1.2.4.34.81.69 1.1 1.14l.04.07.08.03c.34.12.68.35 1.05.6.38.25.77.52 1.17.66l.08.02h.08c.31 0 .52.09.73.18.23.1.47.2.83.2h.25l.22-.11c.23-.11.39-.25.55-.39.17-.14.33-.28.56-.38l.08-.04.05-.07c.15-.23.14-.52.12-.77-.01-.18-.02-.35.03-.47l.03-.07v-.07c.02-.32-.06-.64-.14-.93-.06-.22-.13-.44-.13-.65l-.01-.07-.04-.06c-.21-.31-.37-.64-.4-1.01-.02-.19.01-.39.04-.6.04-.28.08-.57.03-.88 0-.07-.01-.14-.01-.2-.03-.31-.05-.57-.21-.76l-.04-.05-.06-.03c-.22-.1-.38-.24-.53-.38-.18-.16-.35-.31-.6-.4h-.07c-.29-.01-.48-.12-.69-.24-.12-.07-.25-.14-.4-.19l-.07-.02-.07.01c-.28.05-.52-.02-.71-.28l-.03-.04-.04-.03c-.22-.14-.37-.29-.48-.48-.02-.04-.03-.07-.03-.12 0-.03.03-.1.06-.17.07-.17.18-.42.13-.68-.05-.27-.04-.41.14-.54l.06-.04.03-.06c.16-.3.06-.57-.01-.68l-.04-.05-.05-.03c-.35-.19-.44-.4-.34-.71l.03-.1-.04-.1c-.17-.4-.31-.6-.83-.6h-.14l-.11.1c-.27.24-.62.32-.98.4-.26.06-.54.12-.78.25l-.08.04-.04.08c-.07.13-.18.27-.31.24-.14-.04-.18-.2-.18-.38l.01-.13-.08-.11c-.15-.2-.32-.36-.49-.53-.16-.16-.33-.32-.47-.51l-.04-.05-.06-.03c-.22-.1-.41-.24-.5-.51L10.1 3.1l-.05-.07L10 2.99c-.14-.07-.21-.15-.12-.4l.03-.09-.03-.09C10.7 2 11.72 1.21 12.86.67l.4-.18-.14-.06C9.43 1.68 6.43 4.06 4.71 7.24l-.01.03.56.46.07.04c.25.09.42.23.56.36.12.1.22.2.35.27l.08.03.09-.01c.3-.04.47.11.64.26.08.07.17.14.27.2l.06.03.07-.02c.18-.04.37-.09.36.15l-.01.09.06.07c.22.26.47.3.73.35.13.02.27.05.4.1l.08.03.07-.03.39-.2.07-.04.03-.06c.1-.17.25-.2.45-.1l.07.03.07-.01c.19-.04.39.01.57.15l.04.03h.06c.3-.02.58.06.75.35l.03.05.05.03c.13.07.26.13.4.18.27.11.56.23.78.48l.03.04.05.02c.24.09.43.25.62.4.15.13.31.26.49.35l.06.03.07-.01c.3-.04.51.1.67.26.08.07.16.13.25.18l-.57 1.27-.03.06.51 2.29.01.06.02.05c.09.18.11.37.13.57.02.2.04.41.13.61l.03.07h.07c.21.01.34.09.46.18.11.08.21.16.36.2l.07.01.06-.04c.09-.07.18-.13.28-.19-.02.13-.06.27-.1.4-.05.17-.1.34-.11.51v.08l.05.07c.18.24.14.49.09.73-.04.17-.08.35-.05.52l.01.07.05.05c.16.13.2.29.25.48.04.17.09.36.23.54l.05.06.07.02c.25.05.5.06.73-.12.02.08.03.17.05.25.04.2.08.4.05.59-.03.2-.11.35-.22.46-.12.12-.15.23-.08.38.06.14 0 .27-.05.39-.06.13-.12.26-.11.42v.05l.03.05c.06.09.07.19.09.3.02.15.04.31.15.48l.04.06.07.02c.14.04.28.06.41.08.2.03.39.06.54.17l.04.03h.05c.29.03.56-.14.78-.42zm4.93-3.22c-.02-.07-.05-.14-.09-.2-.12-.2-.12-.37-.11-.57.01-.25.02-.53-.2-.85l-.04-.05-.06-.03c-.23-.09-.43-.32-.55-.63-.1-.26-.14-.53-.18-.77-.04-.25-.08-.48-.15-.65l-.02-.06-.04-.05c-.29-.3-.29-.67-.3-1.06 0-.34-.01-.7-.14-1.04l-.03-.06-.04-.05c-.26-.23-.25-.52-.24-.83 0-.2.01-.42-.04-.62l-.02-.07-.05-.05c-.3-.27-.23-.62-.15-.98.03-.16.07-.32.08-.48v-.05l-.03-.05c-.09-.16-.14-.33-.18-.49-.04-.16-.08-.3-.15-.42l-.04-.07-.08-.02c-.22-.05-.39-.16-.49-.35-.08-.16-.11-.35-.13-.52-.02-.17-.04-.33-.1-.46l-.03-.06-.06-.04c-.18-.1-.24-.26-.3-.42-.03-.08-.06-.16-.1-.24-.09-.16-.09-.28.06-.45.05-.06.06-.15.06-.21 0-.13-.08-.21-.13-.2-.05.02-.1.07-.14.07-.06 0-.07-.07-.03-.2.03-.12.01-.19-.08-.22-.06-.02-.13.02-.19.11-.09.14-.16.1-.22-.02-.04-.08-.05-.18-.01-.3.07-.22.03-.33-.07-.38-.08-.04-.16.01-.24.09-.13.13-.18.07-.19-.08 0-.13.07-.28.14-.38.08-.11.07-.22-.03-.27-.1-.05-.2.01-.27.14-.11.2-.19.16-.22-.06-.01-.12.01-.25.07-.38.05-.13.04-.25-.06-.3-.08-.03-.17.03-.24.13-.13.2-.2.16-.22-.06-.01-.09 0-.18.02-.27.02-.08.01-.17-.03-.23-.06-.08-.12-.06-.18.08-.07.16-.15.15-.16-.02 0-.07 0-.14.03-.2.03-.08.03-.16-.02-.21-.06-.07-.12-.04-.17.08-.06.15-.14.14-.16-.02a.4.4 0 01.03-.17l.02-.05c.09-.23.3-.33.55-.3.25.03.46.17.67.32.16.11.32.22.5.3l.08.03.07-.05c.17-.12.34-.11.52-.09.12.01.24.02.36 0l.06-.01.05-.04c.1-.1.22-.16.36-.18.14-.02.29 0 .41.09l.06.04.06-.02c.23-.08.49-.07.7.04l.06.03.06-.02c.17-.07.35-.08.51-.04.17.05.31.15.41.33l.03.06.06.03c.22.08.41.22.56.38l.04.04.06.01c.14.03.29.06.37.18l.03.04.05.02c.31.13.6.28.79.58l.02.04.04.03c.24.14.36.35.47.56.07.13.13.26.22.38l.03.03.04.02c.28.14.34.38.41.62.04.14.08.28.14.4l.03.05.05.03c.22.11.36.29.41.53.04.19.01.4-.02.63-.03.22-.06.46-.02.69l.01.06.05.04c.21.16.23.38.25.61.01.14.02.28.06.41l.02.06.04.04c.19.17.2.38.21.6 0 .15.01.3.06.44l.02.05.04.04c.2.16.25.38.22.58-.04.21-.16.4-.24.53l-.02.03v.04c-.01.31-.07.56-.3.68l-.04.02-.03.04c-.11.17-.26.28-.41.38-.1.07-.2.13-.28.21l-.06.06v.08c.03.29-.06.47-.24.58-.17.1-.41.12-.63.13-.09.01-.17.02-.25.03l-.05.01-.04.03c-.2.17-.44.18-.69.12-.14-.03-.28-.08-.43-.12-.06-.02-.12-.04-.18-.06l-.06-.02-.05.03c-.15.11-.33.13-.51.12-.16-.01-.32-.04-.46-.03-.23.02-.41.13-.57.3l-.05.06.01.07c.04.21-.03.37-.14.51-.14.17-.34.29-.48.38-.05.03-.1.06-.14.09l-.06.04-.01.07c-.03.27-.15.47-.32.62-.2.17-.45.28-.65.36-.07.03-.14.06-.2.08l-.06.03-.03.06c-.09.24-.25.42-.44.54-.2.14-.43.2-.63.23-.07.01-.14.02-.2.04l-.07.02-.03.06c-.09.18-.22.29-.39.36-.16.06-.35.08-.54.09h-.12l-.06.01-.04.05c-.11.15-.26.23-.44.24-.14.01-.29-.02-.45-.06h-.01c-.17-.04-.31.02-.4.16-.1.15-.15.37-.13.59l.01.06.04.05.07.08c.06.07.12.14.16.22.06.13.06.26-.04.42l-.02.04V25c.01.13 0 .27-.03.4-.04.17-.12.33-.29.44-.06.04-.06.1-.01.18.03.05.06.1.08.15a2.25 2.25 0 01-.28-.07c-.23-.08-.4-.2-.42-.43l-.01-.1-.09-.06c-.27-.14-.48-.33-.43-.69l.01-.09-.07-.06c-.17-.13-.3-.28-.3-.52v-.07l-.05-.05c-.2-.17-.35-.37-.26-.67l.02-.08-.06-.05c-.15-.1-.22-.24-.24-.4 0-.04 0-.09.01-.14.49.05 1 .02 1.48-.08h.01c.06-.01.16-.07.27-.14.18-.12.42-.28.58-.21.2.09.43-.02.62-.13.05-.03.09-.05.13-.07l.07-.04.02-.07c.04-.2.14-.34.27-.45.15-.12.33-.2.48-.27.05-.02.1-.05.14-.07l.07-.04.02-.07c.06-.23.19-.39.37-.51.19-.13.42-.21.62-.28.07-.02.14-.05.2-.07l.06-.03.03-.06c.1-.24.28-.38.52-.46.18-.06.38-.08.58-.1.1-.01.2-.02.29-.04l.06-.02.04-.05c.14-.19.34-.26.56-.27.17-.01.36.03.55.07.09.02.18.05.27.06l.06.01.05-.04c.17-.14.38-.17.6-.14.16.02.33.07.51.1.03.01.05.01.08.02l.07.01.05-.04c.14-.12.32-.15.51-.12.11.01.23.05.36.09.1.04.22.07.33.09l.04.01.04-.02c.16-.1.3-.12.45-.07.1.03.2.09.32.17.1.06.2.13.32.18.35-.15.43-.61.48-.91.16-.93.86-1.47 1.33-1.8l.11-.08a8.67 8.67 0 01.2-.93c.11-.4.22-.82.24-1.24.04-.85-.17-1.62-.39-2.41-.1-.34-.19-.69-.27-1.05-.02-.07-.03-.13-.05-.19l-.67.18c.01.06.02.12.04.18.08.35.18.69.27 1.03.22.77.42 1.5.38 2.3-.02.39-.13.79-.23 1.18a9.3 9.3 0 00-.2.88c-.42.32-1.04.8-1.17 1.56-.04.22-.08.44-.15.62-.14-.05-.25-.13-.35-.19-.12-.08-.24-.16-.38-.19-.22-.05-.42-.01-.6.11-.13-.05-.27-.1-.39-.12-.25-.04-.48.01-.66.17-.07-.03-.15-.05-.22-.07-.19-.05-.39-.09-.58-.07-.25.02-.47.12-.62.32-.12.01-.24.02-.35.04-.21.02-.41.04-.59.1-.3.1-.52.28-.65.55-.09.02-.18.04-.26.07-.21.07-.45.15-.65.28-.22.14-.38.32-.46.57-.07.02-.14.04-.2.07-.16.07-.34.16-.5.28-.17.13-.3.3-.35.53-.06.02-.12.05-.18.08-.2.11-.44.23-.66.15-.22-.09-.51.1-.71.24-.06.04-.12.08-.16.1a8.3 8.3 0 01-1.85.09c-.04-.15-.06-.3-.02-.44l.03-.08-.06-.07c-.14-.15-.15-.36-.1-.57.04-.17.12-.35.18-.5.04-.1.08-.19.1-.27v-.01c.19-.12.3-.31.33-.53zm10-8.95c-.12-.41-.26-.8-.41-1.18l-.67.25c.15.37.28.75.4 1.14l.68-.2zm-1.01-2.52a13.6 13.6 0 00-.65-1.06l-.58.38c.24.35.45.7.64 1.04l.59-.36zm-1.58-2.2c-.27-.32-.56-.63-.87-.92l-.49.48c.3.28.58.58.84.89l.52-.45zm-2.02-1.82a13.21 13.21 0 00-1.04-.71l-.36.59c.35.22.69.46 1.01.69l.39-.57zm-2.33-1.34c-.38-.2-.77-.38-1.17-.54l-.26.66c.39.16.77.33 1.14.52l.29-.64zm-2.55-.97c-.41-.12-.82-.22-1.24-.3l-.13.69c.4.08.81.18 1.21.29l.16-.68zm-2.67-.42h-.08c-.36-.04-.72-.06-1.09-.07l-.02.7c.36.01.71.03 1.06.07h.07l.06-.7z"/></svg>
